<?xml version="1.0" encoding="utf-8" ?><svg xmlns="http://www.w3.org/2000/svg" xmlns:xlink="http://www.w3.org/1999/xlink" width="1024" height="1024" viewBox="0 0 1024 1024"><path fill="#FFFFFF" d="M396.275 386.145C397.873 386.094 399.472 386.058 401.072 386.038L661.973 386.031L743.383 386.021L768.19 385.991C782.178 385.972 793.662 385.298 804.53 395.981C816.734 407.977 815.372 423.175 815.383 438.983L815.356 563.92L815.337 598.904C815.302 614.82 816.885 628.627 804.652 640.743C793.236 652.049 781.258 651.131 766.275 650.984C759.088 650.913 751.735 650.971 744.586 650.971L666.001 650.971L396.465 650.955C389.896 651.06 377.894 652.679 377.072 644.066C376.442 637.465 375.135 628.555 384.474 628.775C394.58 629.012 404.39 628.935 414.362 628.93L485.443 628.933L708.329 628.931L754.633 628.941C758.83 628.942 763.193 629.043 767.369 628.927C774.3 628.734 783.837 630.032 787.89 622.982C789.296 620.536 789.902 618.495 789.962 615.7C790.185 605.237 790.094 594.754 790.094 584.286L790.082 524.968L790.105 457.36C790.107 445.888 790.708 429.452 789.139 418.137C788.764 415.434 783.829 410.711 780.269 410.365C772.576 409.617 763.435 409.938 755.584 409.967L708.223 409.989L500.124 409.985L433.573 409.988C422.172 410.005 410.695 410.121 399.295 410.038C397.234 410.023 393.787 409.646 391.996 408.63C390.228 407.628 389.131 405.191 388.844 403.135C388.228 398.734 388.48 392.47 391.021 388.713C392.308 386.811 394.216 386.553 396.275 386.145Z"/><path fill="#FFFFFF" d="M399.48 387.721L656.975 387.703L741.148 387.763C755.295 387.757 770.467 387.211 784.49 388.058C790.405 388.416 798.752 392.397 802.936 396.592C811.609 405.288 813.889 414.772 813.904 426.622C813.96 468.597 813.921 510.585 813.937 552.535L813.938 593.813C813.933 603.127 814.177 612.985 812.899 622.243C811.295 633.872 798.88 647.106 787.109 648.441C774.984 649.815 761.205 649.307 748.853 649.31L675.626 649.196L399.425 649.306C394.979 649.322 383.614 649.91 380.389 647.912C377.832 644.026 376.603 636.955 379.375 632.797C380.269 631.456 382.71 630.323 384.341 630.348C394.372 630.506 404.399 630.506 414.435 630.509L484.277 630.509L709.717 630.53L755.677 630.526C763.465 630.522 771.659 630.846 779.382 630.013C786.813 629.21 791.23 623.048 791.485 615.878C791.98 601.968 791.847 588.024 791.807 574.107L791.811 509.781L791.844 453.985C791.848 447.278 791.506 438.576 791.848 432.059C793.317 404.019 777.939 408.502 756.242 408.547L707.169 408.529L492.967 408.53L426.495 408.526C416.905 408.531 407.319 408.514 397.723 408.668C393.696 408.732 390.657 407.029 390.345 402.627C390.087 398.998 389.736 392.709 392.109 389.75C393.805 387.635 396.96 387.784 399.48 387.721Z"/><path fill="#0578FE" d="M233.528 374.239C234.228 358.789 242.605 342.933 253.812 332.631C278.423 310.006 322.138 311.484 344.309 336.902C349.935 343.34 356.612 353.319 358.509 361.788C362.509 379.649 360.834 399.727 361.034 418.12C361.142 428.049 361.616 441.205 360.937 450.938C361.247 464.801 361.968 486.692 353.774 498.527C352.414 501.698 349.999 505.331 347.385 508.634C322.09 540.591 264.67 538.441 243.424 503.03C243.361 502.851 243.298 502.672 243.234 502.493C232.856 489.906 233.107 468.075 233.081 452.767L233.043 416.935L233.037 390.446C233.038 385.944 232.832 378.51 233.528 374.239Z"/><path fill="#0065F8" d="M233.528 374.239C234.493 377.623 234.211 393.925 234.23 398.188L234.45 447.908C234.543 464.366 233.009 480.96 240.947 495.897C241.843 497.581 243.241 500.567 243.234 502.493C232.856 489.906 233.107 468.075 233.081 452.767L233.043 416.935L233.037 390.446C233.038 385.944 232.832 378.51 233.528 374.239Z"/><path fill="#0065F8" d="M360.937 450.938C361.247 464.801 361.968 486.692 353.774 498.527C353.755 497.96 358.044 484.032 358.784 481.125C361.016 472.348 359.263 458.647 360.937 450.938Z"/><path fill="#0578FE" d="M377.524 477.724C377.7 467.579 376.787 455.649 377.741 445.856C378.566 437.391 400.298 435.039 404.189 444.63C405.538 449.602 404.867 456.612 404.989 461.857C405.529 485.095 403.306 504.242 391.492 524.934C377.79 548.933 354.6 565.806 327.927 572.981C323.904 574.071 319.81 574.877 315.674 575.393C316.215 580.825 316.541 611.532 315.682 616.171C321.314 616.065 327.932 615.892 333.245 615.986C339.578 616.098 352.195 614.711 356.442 619.658C361.09 625.072 360.861 643.385 355.36 648.567C348.732 650.736 334.952 650.032 327.444 650.035L291.464 650.04L260.889 650.032C256.347 650.03 249.199 650.241 244.828 649.927C243.584 649.849 242.367 649.526 241.246 648.979C240.325 648.517 239.425 647.765 238.634 647.101C234.705 642.374 235.2 626.213 237.548 620.96C243.555 613.247 268.646 616.017 278.388 616.087C277.96 603.406 278.349 588.49 278.36 575.635C277.148 575.428 275.939 575.206 274.732 574.969C247.584 569.846 223.65 553.987 208.35 530.982C194.058 509.604 190.218 488.534 190.938 463.441C191.089 458.179 190.483 449.609 191.486 444.639C192.222 442.587 193.467 440.534 195.61 439.994C219.104 434.072 217.733 446.725 216.929 462.954C215.37 494.391 227.053 514.916 250.876 533.899C251.233 534.013 259.292 538.549 260.488 539.208C270.171 544.542 279.767 546.857 290.763 547.819C312.529 549.784 334.185 543.03 350.975 529.039C367.227 515.389 375.643 498.679 377.524 477.724Z"/><path fill="#0065F8" d="M191.486 444.639C192.222 442.587 193.467 440.534 195.61 439.994C219.104 434.072 217.733 446.725 216.929 462.954C215.37 494.391 227.053 514.916 250.876 533.899C248.365 533.381 244.129 530.172 242.175 528.452C225.911 514.14 216.685 493.662 215.489 472.166C215.034 463.991 216.018 455.422 215.396 447.208C215.091 443.189 213.895 442.405 210.902 439.907C208.238 440.07 205.25 440.342 202.601 440.291C196.502 440.174 195.597 441.023 191.486 444.639Z"/><path fill="#0065F8" d="M377.524 477.724C377.7 467.579 376.787 455.649 377.741 445.856C378.566 437.391 400.298 435.039 404.189 444.63C403.727 444.293 400.769 441.833 400.636 441.773C395.596 439.473 383.414 438.807 380.036 444.19C375.611 451.24 382.402 472.181 377.524 477.724Z"/><path fill="#0065F8" d="M315.682 616.171C313.343 613.214 314.803 580.357 315.674 575.393C316.215 580.825 316.541 611.532 315.682 616.171Z"/><path fill="#0065F8" d="M237.548 620.96C238.723 629.122 236.088 637.043 238.634 647.101C234.705 642.374 235.2 626.213 237.548 620.96Z"/><path fill="#FFFFFF" d="M416.85 568.073C446.224 567.292 478.992 568.002 508.558 568.002L670.236 568.063C671.21 568.689 674.63 571.013 674.951 572.365C676.86 580.406 676.442 595.932 675.224 604.239C674.909 606.384 671.508 608.037 670.131 608.683C662.56 609.53 638.892 608.968 630.223 608.967L547.649 608.952L460.701 608.975C449.648 608.975 424.969 609.642 414.874 608.072C409.633 604.326 410.419 592.988 410.752 587.053C411.214 578.814 408.486 572.004 416.85 568.073Z"/><path fill="#FFFFFF" d="M417.382 569.591C428.371 569.085 442.861 569.504 454.155 569.504L525.31 569.505L615.845 569.502C632.174 569.492 648.476 569.414 664.829 569.537C670.882 569.583 673.505 570.237 674.27 577.24C674.511 581.936 674.59 586.924 674.374 591.629C674.06 598.497 676.652 606.517 667.479 607.247C652.368 607.732 634.514 607.268 619.201 607.247L516.106 607.149L447.329 607.223C436.977 607.224 426.381 607.53 416.085 606.562C414.06 606.371 412.519 601.407 412.471 599.764C412.219 591.193 412.034 582.254 412.797 573.73C412.965 571.859 415.957 570.274 417.382 569.591Z"/><path fill="#FFFFFF" d="M685.932 439.1C701.686 438.43 719.482 438.797 735.205 439.451C746.067 440.535 741.498 459.292 742.297 466.692C742.99 473.113 742.415 477.785 736.649 480.604C728.394 481.546 719.481 480.954 711.152 480.969C703.897 480.982 695.702 481.751 688.583 480.626C686.095 480.233 683.017 479.429 681.539 477.214C679.516 474.182 679.317 448.45 680.602 444.504C681.534 441.64 683.353 440.427 685.932 439.1Z"/><path fill="#FFFFFF" d="M685.851 440.591C695.613 440.428 705.376 440.37 715.138 440.416C740.013 440.402 742.243 436.974 740.925 465.091C740.673 470.459 742.183 475.961 736.59 478.937C728.798 479.252 688.651 480.09 683.832 477.82C679.715 472.26 681.853 463.661 681.342 456.894C680.836 450.191 680.581 445.18 685.851 440.591Z"/><path fill="#FFFFFF" d="M520.329 439.08C528.2 438.734 561.55 438.036 567.623 439.494C569.687 439.989 572.189 440.986 573.199 442.98C575.15 446.83 575.275 472.025 573.52 476.283C572.512 478.73 570.638 479.669 568.33 480.686C556.357 481.475 543.683 480.663 531.616 480.944C523.909 481.123 519.172 482.342 514.594 475.545C513.821 468.303 513.457 451.468 515.111 444.243C515.728 441.546 518.013 440.225 520.329 439.08Z"/><path fill="#FFFFFF" d="M520.109 440.582C534.138 440.072 548.578 440.636 562.639 440.433C564.448 440.347 570.739 441.291 571.472 443.27C574.603 451.727 572.234 462.606 572.92 471.675C573.141 474.608 571.491 477.105 569.146 478.873L568.84 478.903C567.477 479.057 566.11 479.17 564.741 479.242C553.134 479.803 541.025 479.022 529.434 479.211C514.875 479.909 515.119 474.724 515.883 462.355C516.35 454.785 513.215 445.561 520.109 440.582Z"/><path fill="#FFFFFF" d="M603.008 439.099C609.923 438.755 645.877 437.996 651.071 439.623C653.075 440.25 654.561 441.791 655.533 443.607C657.149 446.626 657.126 472.119 655.891 475.506C654.887 478.258 653.123 479.377 650.552 480.542C643.328 481.475 635.466 480.938 628.149 480.956C621.2 480.973 613.999 481.402 607.091 480.88C604.342 480.673 600.078 479.765 598.406 477.302C596.49 474.479 596.342 448.116 597.533 444.497C598.507 441.537 600.344 440.469 603.008 439.099Z"/><path fill="#FFFFFF" d="M603.941 440.575C610.763 440.452 649.23 439.319 652.179 441.581C653.324 442.459 654.035 444.432 654.385 445.765C655.746 450.948 655.981 472.658 653.287 476.859C652.331 478.349 651.211 478.705 649.613 479.105C634.873 480.045 617.45 479.216 602.703 478.593C598.349 477.475 597.869 468.923 598.362 466.152C599.902 457.491 594.457 444.648 603.941 440.575Z"/><path fill="#FFFFFF" d="M439.016 439.102C447.645 438.791 457.152 438.993 465.549 438.971C471.328 439.485 486.509 436.76 489.74 442.575C492.589 447.702 491.767 470.204 490.801 476.165C488.65 479.081 488.034 479.825 484.585 480.833C476.135 481.145 443.697 482.009 437.694 480.002C435.914 479.407 433.729 478.276 432.918 476.475C431.25 472.77 431.32 447.475 432.983 443.741C434.205 440.997 436.326 440.054 439.016 439.102Z"/><path fill="#FFFFFF" d="M438.428 440.568L467.352 440.427C484.212 440.368 492.097 437.14 490.009 458.663C489.307 465.898 492.748 475.148 485.364 478.988C475.803 479.152 466.241 479.249 456.679 479.28C427.503 479.309 434.368 478.482 433.407 453.171C433.174 447.033 433.112 443.884 438.428 440.568Z"/><path fill="#FFFFFF" d="M640.134 503.102C646.342 502.771 684.853 502.433 688.495 503.548C690.373 504.111 691.938 505.422 692.82 507.174C694.713 510.864 694.052 520.804 693.896 525.299C693.632 532.918 696.364 540.182 688.237 543.87C673.177 544.374 654.711 544.051 639.562 543.925C632.041 538.984 633.905 531.927 633.935 523.565C633.963 515.303 631.821 506.87 640.134 503.102Z"/><path fill="#FFFFFF" d="M639.792 504.59C652.355 503.831 665.755 504.806 678.394 504.343C682.007 504.211 687.323 504.254 690.358 506.313C692.483 509.855 693.043 516.615 692.446 520.721C691.364 528.153 695.367 537.83 688.314 542.327C674.46 543.188 659.773 542.265 645.843 542.599C633.526 542.986 635.164 533.607 635.478 524.561C635.735 517.14 633.061 509.676 639.792 504.59Z"/><path fill="#FFFFFF" d="M563.996 503.075C575.996 502.623 587.936 503.169 600.293 502.925C615.727 502.621 611.445 514.674 611.832 525.526C612.088 532.704 613.244 539.868 606.275 543.93C593.265 544.242 580.13 543.635 567.083 544.08C559.316 544.506 557.867 538.593 557.871 532.028C557.875 524.092 557.871 516.037 558.16 508.085C560.151 504.878 560.514 504.543 563.996 503.075Z"/><path fill="#FFFFFF" d="M563.782 504.629C574.085 503.975 584.796 504.66 595.154 504.33C599.309 504.198 606.307 503.951 609.136 507.361C610.882 512.504 609.967 520.537 609.978 526.106C609.99 532.845 611.914 538.241 605.759 542.393C592.726 543.253 576.851 542.674 563.765 541.948C557.29 541.589 559.889 523.719 559.349 519.06C558.768 514.049 558.676 507.194 563.782 504.629Z"/><path fill="#FFFFFF" d="M491.057 503.107C502.534 502.608 514.439 503.019 525.947 502.981C537.098 502.837 536.575 512.764 535.96 521.138C535.33 529.716 538.948 539.11 530.209 543.865C517.51 544.402 503.235 544.274 490.642 543.52C485.186 542.266 484.343 532.972 484.955 529.216C486.465 519.959 481.008 507.603 491.057 503.107Z"/><path fill="#FFFFFF" d="M491.168 504.626C502.767 504.17 514.534 504.11 526.186 504.471C536.353 504.416 534.75 515.398 534.297 522.664C533.836 530.077 536.749 537.82 529.9 542.41C517.784 542.991 504.377 542.701 492.247 542.325C484.943 542.099 486.359 527.416 486.558 522.67C486.842 515.901 484.459 508.736 491.168 504.626Z"/><path fill="#FFFFFF" d="M425.017 503.092C433.61 503.008 442.635 502.974 451.152 502.815C464.881 502.559 463.462 511.99 463.301 522.54C463.219 527.905 463.086 533.539 462.916 538.975C458.132 546.064 450.566 544.077 442.75 543.969C433.644 544.008 424.514 544.051 415.407 544.045C412.432 544.043 406.43 544.485 404.493 542.216C404.565 540.603 409.451 532.698 410.592 530.561C414.766 522.746 416.78 515.965 419.457 507.627C420.314 504.958 422.575 504.122 425.017 503.092Z"/><path fill="#FFFFFF" d="M424.666 504.608C429.232 504.447 455.491 503.652 458.654 505.525C463.532 508.413 463.131 535.8 459.339 541.017C455.54 543.434 447.752 542.616 442.875 542.535C437.936 542.558 409.153 543.548 406.698 541.225L406.738 540.261C410.809 533.963 414.039 527.104 416.9 520.183C419.3 514.377 419.231 508.226 424.666 504.608Z"/></svg>